<svg width="0" height="0" style="display:none" xmlns="http://www.w3.org/2000/svg">
  <symbol viewBox="0 -71 511.999 511" id="ytb">
    <path d="M255.98 370.492h-.136c-15.45-.105-152.028-1.351-190.723-11.816-27.043-7.27-48.39-28.594-55.68-55.64C-.684 265.022-.039 191.84.031 185.995c-.066-5.816-.719-79.605 9.38-117.93.01-.035.019-.074.03-.109 7.207-26.738 29.036-48.723 55.614-56.012.066-.02.136-.035.203-.054C103.516 1.836 240.363.605 255.844.5h.277c15.488.105 152.43 1.352 190.77 11.832 26.972 7.25 48.304 28.547 55.613 55.559 10.504 38.351 9.531 112.3 9.426 118.543.074 6.148.687 78.675-9.38 116.878-.007.04-.019.075-.027.11-7.293 27.047-28.636 48.371-55.71 55.648-.036.012-.075.02-.11.032-38.254 10.05-175.105 11.28-190.582 11.39h-.14zM48.074 78.324c-8.89 33.828-8.05 106.676-8.043 107.41v.528c-.265 20.203.668 78.71 8.047 106.422 3.578 13.27 14.106 23.78 27.457 27.37 28.55 7.723 139.79 10.153 180.445 10.438 40.762-.285 152.165-2.648 180.504-10.062 13.309-3.602 23.801-14.078 27.403-27.364 7.386-28.117 8.312-86.34 8.043-106.414 0-.21 0-.422.004-.632.367-20.446-.356-79.637-8.012-107.57a.624.624 0 0 1-.02-.083c-3.593-13.328-14.125-23.84-27.476-27.43-28.274-7.73-139.692-10.152-180.446-10.437-40.734.285-152.027 2.645-180.453 10.05-13.097 3.634-23.863 14.52-27.453 27.774zM483.211 298.22h.012zM205 266.492V104.496l140 81zm0 0"></path>
  </symbol>  
  <symbol viewBox="0 0 512 512" id="whs">
    <path d="m123.832031 475.464844c39.558594 23.804687 84.789063 36.351562 131.261719 36.351562 140.824219 0 256.90625-114.914062 256.90625-255.910156 0-140.832031-115.917969-255.90625-256.90625-255.90625-140.558594 0-254.910156 114.800781-254.910156 255.90625 0 47.09375 12.550781 92.667969 36.351562 132.257812l-36.535156 123.835938zm-93.65625-219.558594c0-124.570312 100.898438-225.917969 224.917969-225.917969 125.121094 0 226.917969 101.347657 226.917969 225.917969 0 124.574219-101.796875 225.917969-226.917969 225.917969-43.054688 0-84.894531-12.195313-120.984375-35.273438l-5.765625-3.683593-83.988281 24.78125 24.777343-83.992188-3.683593-5.761719c-23.078125-36.097656-35.273438-78.277343-35.273438-121.988281zm0 0"></path>
    <path d="m124.628906 208.753906c4.953125 26.011719 19.65625 76.042969 62.464844 118.851563 42.808594 42.808593 92.839844 57.515625 118.855469 62.46875 29.789062 5.671875 73.503906 6.527343 94.867187-14.835938l11.910156-11.910156c6.011719-6.011719 9.324219-14.007813 9.324219-22.511719s-3.3125-16.496094-9.324219-22.507812l-47.628906-47.628906c-6.015625-6.015626-14.007812-9.324219-22.511718-9.324219-8.503907 0-16.496094 3.308593-22.511719 9.324219l-11.90625 11.90625c-7.273438 7.273437-21.003907 7.304687-28.332031.089843l-47.507813-49.5c-.070313-.074219-.140625-.148437-.214844-.21875-7.285156-7.285156-7.285156-19.140625 0-26.425781l11.90625-11.90625c12.445313-12.445312 12.445313-32.582031 0-45.023438l-47.628906-47.628906c-12.410156-12.410156-32.605469-12.410156-45.019531 0l-11.90625 11.910156v-.003906c-17.050782 17.054688-22.734375 53.40625-14.835938 94.875zm36.042969-73.664062c12.5-12.214844 11.832031-12.449219 13.210937-12.449219.472657 0 .945313.179687 1.304688.539063 50.1875 50.457031 48.171875 47.492187 48.171875 48.9375 0 .503906-.183594.945312-.539063 1.304687l-11.910156 11.90625c-18.964844 18.964844-19.039062 49.664063-.121094 68.714844l47.535157 49.53125c.074219.070312.144531.144531.21875.21875 18.960937 18.960937 51.808593 19.023437 70.832031 0l11.90625-11.90625c.71875-.71875 1.890625-.71875 2.609375 0 50.1875 50.453125 48.171875 47.488281 48.171875 48.933593 0 .507813-.183594.945313-.539062 1.304688l-11.910157 11.90625c-8.160156 8.160156-34.152343 13.042969-68.054687 6.585938-22.625-4.3125-66.128906-17.085938-103.257813-54.214844-37.128906-37.128906-49.902343-80.632813-54.210937-103.257813-6.460938-33.902343-1.578125-59.898437 6.582031-68.054687zm0 0"></path>
  </symbol>
  <symbol viewBox="0 0 512 512" id="tlg">
    <path d="M501.974 41.949a30.939 30.939 0 0 0-30.555-6.565L21.231 183.785C8.962 187.829.642 198.781.035 211.684c-.606 12.904 6.649 24.589 18.483 29.768l111.335 48.712 33.591 155.795c1.395 6.472 4.68 12.237 11.639 14.01 7.039 1.793 12.012-2.054 17.264-5.986l82.62-61.865 96.589 79.039c5.626 4.606 12.502 7.008 19.513 7.008a31.091 31.091 0 0 0 9.986-1.657c10.166-3.447 17.702-11.744 20.159-22.193L511.18 71.813a30.938 30.938 0 0 0-9.206-29.864zm-302.43 276.128c-.055.13-.109.277-.16.453l-18.624 65.068-20.784-96.395 142.917-79.405-99.921 104.478a15.03 15.03 0 0 0-3.428 5.801zm5.911 88.525 8.459-29.555 8.091-28.269 28.991 23.724-45.541 34.1zM481.908 64.927l-89.965 382.502c-.045.19-.105.452-.545.601-.436.148-.648-.021-.798-.145l-105.691-86.488-.008-.007-48.969-40.072L393.255 156.82a15.035 15.035 0 0 0 1.035-19.579 15.034 15.034 0 0 0-19.204-3.955L142.135 262.715 30.572 213.902c-.34-.148-.527-.231-.5-.806.027-.573.221-.638.573-.754l450.188-148.4c.218-.071.464-.153.826.177.362.332.302.584.249.808z"></path>
  </symbol>
  <symbol viewBox="0 0 512 512" id="ins">
    <path d="m373.40625 0h-234.8125c-76.421875 0-138.59375 62.171875-138.59375 138.59375v234.816406c0 76.417969 62.171875 138.589844 138.59375 138.589844h234.816406c76.417969 0 138.589844-62.171875 138.589844-138.589844v-234.816406c0-76.421875-62.171875-138.59375-138.59375-138.59375zm108.578125 373.410156c0 59.867188-48.707031 108.574219-108.578125 108.574219h-234.8125c-59.871094 0-108.578125-48.707031-108.578125-108.574219v-234.816406c0-59.871094 48.707031-108.578125 108.578125-108.578125h234.816406c59.867188 0 108.574219 48.707031 108.574219 108.578125zm0 0"></path>
    <path d="m256 116.003906c-77.195312 0-139.996094 62.800782-139.996094 139.996094s62.800782 139.996094 139.996094 139.996094 139.996094-62.800782 139.996094-139.996094-62.800782-139.996094-139.996094-139.996094zm0 249.976563c-60.640625 0-109.980469-49.335938-109.980469-109.980469 0-60.640625 49.339844-109.980469 109.980469-109.980469 60.644531 0 109.980469 49.339844 109.980469 109.980469 0 60.644531-49.335938 109.980469-109.980469 109.980469zm0 0"></path>
    <path d="m399.34375 66.285156c-22.8125 0-41.367188 18.558594-41.367188 41.367188 0 22.8125 18.554688 41.371094 41.367188 41.371094s41.371094-18.558594 41.371094-41.371094-18.558594-41.367188-41.371094-41.367188zm0 52.71875c-6.257812 0-11.351562-5.09375-11.351562-11.351562 0-6.261719 5.09375-11.351563 11.351562-11.351563 6.261719 0 11.355469 5.089844 11.355469 11.351563 0 6.257812-5.09375 11.351562-11.355469 11.351562zm0 0"></path>
  </symbol>  
  <symbol viewBox="0 0 452.84 452.84" id="mail"><path d="m449.483 190.4.001-.001-57.824-38.335V23.93a7.5 7.5 0 0 0-7.5-7.5H68.67a7.5 7.5 0 0 0-7.5 7.5v128.143L3.356 190.399l.001.002A7.49 7.49 0 0 0 0 196.65v232.26a7.5 7.5 0 0 0 7.5 7.5h437.84a7.5 7.5 0 0 0 7.5-7.5V196.65a7.493 7.493 0 0 0-3.357-6.25zM61.17 216.629 37.645 204.15H61.17v12.479zM15 209.118l172.475 91.49L15 414.935V209.118zm211.417 83.671L420.454 421.41H32.381l194.036-128.621zm38.945 7.82 172.477-91.491v205.821l-172.477-114.33zM391.66 204.15h23.536l-23.536 12.484V204.15zm28.794-15H391.66v-19.09l28.794 19.09zM376.66 31.43v193.161l-125.527 66.586-20.573-13.637a7.499 7.499 0 0 0-8.287 0l-20.57 13.635L76.17 224.586V31.43h300.49zM61.17 189.15H32.388l28.782-19.08v19.08z"/><path d="M226.415 213.671h59.754a7.5 7.5 0 0 0 0-15h-59.754c-28.813 0-52.254-23.441-52.254-52.254v-2.213c0-28.813 23.441-52.254 52.254-52.254s52.254 23.441 52.254 52.254v5.533c0 6.237-5.074 11.312-11.312 11.312s-11.312-5.074-11.312-11.312v-10.512c0-17.864-14.533-32.398-32.397-32.398s-32.397 14.533-32.397 32.398c0 17.864 14.533 32.397 32.397 32.397 8.169 0 15.636-3.045 21.34-8.052 4.644 7.483 12.932 12.478 22.369 12.478 14.508 0 26.312-11.803 26.312-26.312v-5.533c0-37.084-30.17-67.254-67.254-67.254s-67.254 30.17-67.254 67.254v2.213c0 37.085 30.17 67.255 67.254 67.255zm-2.767-57.049c-9.593 0-17.397-7.804-17.397-17.397s7.805-17.398 17.397-17.398 17.397 7.805 17.397 17.398-7.804 17.397-17.397 17.397z"/></symbol>
  <symbol viewBox="0 0 448 512" id="lin"><path d="M100.28 448H7.4V148.9h92.88zM53.79 108.1C24.09 108.1 0 83.5 0 53.8a53.79 53.79 0 0 1 107.58 0c0 29.7-24.1 54.3-53.79 54.3zM447.9 448h-92.68V302.4c0-34.7-.7-79.2-48.29-79.2-48.29 0-55.69 37.7-55.69 76.7V448h-92.78V148.9h89.08v40.8h1.3c12.4-23.5 42.69-48.3 87.88-48.3 94 0 111.28 61.9 111.28 142.3V448z"/></symbol>  
  <symbol viewBox="0 0 20 20" id="tel"><path d="M17.256 12.253c-.096-.667-.611-1.187-1.274-1.342-2.577-.604-3.223-2.088-3.332-3.734C12.193 7.092 11.38 7 10 7s-2.193.092-2.65.177c-.109 1.646-.755 3.13-3.332 3.734-.663.156-1.178.675-1.274 1.342l-.497 3.442C2.072 16.907 2.962 18 4.2 18h11.6c1.237 0 2.128-1.093 1.953-2.305l-.497-3.442zM10 15.492c-1.395 0-2.526-1.12-2.526-2.5s1.131-2.5 2.526-2.5 2.526 1.12 2.526 2.5-1.132 2.5-2.526 2.5zM19.95 6c-.024-1.5-3.842-3.999-9.95-4C3.891 2.001.073 4.5.05 6s.021 3.452 2.535 3.127c2.941-.381 2.76-1.408 2.76-2.876C5.345 5.227 7.737 4.98 10 4.98s4.654.247 4.655 1.271c0 1.468-.181 2.495 2.76 2.876C19.928 9.452 19.973 7.5 19.95 6z"/></symbol>
  <symbol viewBox="0 0 18 22" id="map"><path d="M7 .833C3.509.833.668 3.725.668 7.28c0 1.2.327 2.372.946 3.389l5.026 8.245a.526.526 0 0 0 .448.254h.004a.526.526 0 0 0 .449-.261l4.897-8.325a6.526 6.526 0 0 0 .894-3.302c0-3.554-2.84-6.446-6.332-6.446zm4.533 9.196L7.08 17.598l-4.57-7.496a5.436 5.436 0 0 1-.793-2.823C1.717 4.317 4.09 1.9 7 1.9s5.28 2.417 5.28 5.379a5.44 5.44 0 0 1-.747 2.75z"/><path d="M7 3.631a3.56 3.56 0 0 0-3.556 3.557A3.552 3.552 0 0 0 7 10.744a3.55 3.55 0 0 0 3.556-3.556A3.56 3.56 0 0 0 7 3.63zm0 5.935a2.38 2.38 0 0 1-2.379-2.378c0-1.308 1.072-2.38 2.379-2.38s2.375 1.072 2.375 2.38A2.376 2.376 0 0 1 7 9.566z"/></symbol>
  <symbol viewBox="0 0 32 32" id="twitter"><g><path d="M28 1c1.654 0 3 1.346 3 3v24c0 1.654-1.346 3-3 3H4c-1.654 0-3-1.346-3-3V4c0-1.654 1.346-3 3-3h24m0-1H4C1.8 0 0 1.8 0 4v24c0 2.2 1.8 4 4 4h24c2.2 0 4-1.8 4-4V4c0-2.2-1.8-4-4-4z"></path><path d="M18.328 8.56c-1.663.605-2.714 2.166-2.594 3.874l.04.659-.665-.081c-2.421-.309-4.537-1.358-6.333-3.121l-.879-.874-.226.646c-.479 1.439-.173 2.96.825 3.982.532.565.412.646-.505.309-.319-.107-.599-.188-.625-.148-.093.095.226 1.318.479 1.803.346.673 1.051 1.331 1.823 1.722l.652.309-.771.013c-.745 0-.771.013-.691.297.266.874 1.317 1.803 2.488 2.206l.825.282-.718.431a7.457 7.457 0 0 1-3.566.995c-.599.013-1.091.067-1.091.108 0 .134 1.624.887 2.568 1.184 2.834.874 6.2.497 8.728-.996 1.796-1.063 3.592-3.175 4.431-5.22.453-1.089.905-3.08.905-4.034 0-.619.04-.7.785-1.439.439-.43.851-.901.931-1.036.133-.256.119-.256-.559-.027-1.131.404-1.291.35-.731-.255.412-.43.905-1.211.905-1.439 0-.04-.199.027-.426.148-.239.135-.771.337-1.171.457l-.722.228-.652-.444c-.359-.242-.864-.511-1.131-.592-.679-.189-1.717-.162-2.329.053z"></path></g></symbol>
  <symbol viewBox="0 0 32 32" id="facebook"><g><path d="M28 1c1.654 0 3 1.346 3 3v24c0 1.654-1.346 3-3 3H4c-1.654 0-3-1.346-3-3V4c0-1.654 1.346-3 3-3h24m0-1H4C1.8 0 0 1.8 0 4v24c0 2.2 1.8 4 4 4h24c2.2 0 4-1.8 4-4V4c0-2.2-1.8-4-4-4z"></path><path d="M13.597 25.261h3.827v-9.262h2.553l.338-3.191h-2.891l.004-1.598c0-.832.079-1.278 1.273-1.278h1.596V6.739h-2.554c-3.067 0-4.146 1.549-4.146 4.152v1.916h-1.912v3.192h1.912v9.262z"></path></g></symbol>

  <symbol viewBox="0 0 88.49 88.49" id="youtube"><rect width="84.49" height="84.49" x="2" y="2" fill="none" stroke="currentColor" stroke-miterlimit="10" stroke-width="4" rx="6.09"></rect><path d="M66.77 36.78a8.3 8.3 0 0 0-8.29-8.3H30.19a8.3 8.3 0 0 0-8.29 8.3V51.6a8.29 8.29 0 0 0 8.29 8.29h28.29a8.29 8.29 0 0 0 8.29-8.29ZM52 45.07l-11.33 5.58c-.44.24-1.94-.08-1.94-.58V38.6c0-.51 1.51-.83 2-.58l10.76 5.88c.51.26.93.92.51 1.17Z"></path></symbol>
  <symbol viewBox="0 0 88.49 88.49" id="instagram"><rect width="84.49" height="84.49" x="2" y="2" fill="none" stroke="currentColor" stroke-miterlimit="10" stroke-width="4" rx="6.09"></rect><path d="M56.67 29.15a2.76 2.76 0 1 0 2.75 2.75 2.75 2.75 0 0 0-2.75-2.75zm-12.23 3.53A11.57 11.57 0 1 0 56 44.24a11.58 11.58 0 0 0-11.56-11.56zm0 19a7.41 7.41 0 1 1 7.4-7.41 7.41 7.41 0 0 1-7.4 7.38z"></path><path d="M53.61 67.72H34.87a14.12 14.12 0 0 1-14.1-14.1V34.87a14.12 14.12 0 0 1 14.1-14.1h18.74a14.12 14.12 0 0 1 14.11 14.1v18.75a14.12 14.12 0 0 1-14.11 14.1ZM34.87 25.19a9.69 9.69 0 0 0-9.68 9.68v18.75a9.69 9.69 0 0 0 9.68 9.68h18.74a9.69 9.69 0 0 0 9.69-9.68V34.87a9.69 9.69 0 0 0-9.69-9.68Z"></path></symbol>
</svg>