<svg width="0" height="0" style="display:none" xmlns="http://www.w3.org/2000/svg">
  <symbol viewBox="0 -71 511 511" id="ytb">
    <path d="M255.98 370.492h-.136c-15.45-.105-152.028-1.351-190.723-11.816-27.043-7.27-48.39-28.594-55.68-55.64C-.684 265.022-.039 191.84.031 185.995c-.066-5.816-.719-79.605 9.38-117.93.01-.035.019-.074.03-.109 7.207-26.738 29.036-48.723 55.614-56.012.066-.02.136-.035.203-.054C103.516 1.836 240.363.605 255.844.5h.277c15.488.105 152.43 1.352 190.77 11.832 26.972 7.25 48.304 28.547 55.613 55.559 10.504 38.351 9.531 112.3 9.426 118.543.074 6.148.687 78.675-9.38 116.878-.007.04-.019.075-.027.11-7.293 27.047-28.636 48.371-55.71 55.648-.036.012-.075.02-.11.032-38.254 10.05-175.105 11.28-190.582 11.39h-.14zM48.074 78.324c-8.89 33.828-8.05 106.676-8.043 107.41v.528c-.265 20.203.668 78.71 8.047 106.422 3.578 13.27 14.106 23.78 27.457 27.37 28.55 7.723 139.79 10.153 180.445 10.438 40.762-.285 152.165-2.648 180.504-10.062 13.309-3.602 23.801-14.078 27.403-27.364 7.386-28.117 8.312-86.34 8.043-106.414 0-.21 0-.422.004-.632.367-20.446-.356-79.637-8.012-107.57a.624.624 0 0 1-.02-.083c-3.593-13.328-14.125-23.84-27.476-27.43-28.274-7.73-139.692-10.152-180.446-10.437-40.734.285-152.027 2.645-180.453 10.05-13.097 3.634-23.863 14.52-27.453 27.774zM483.211 298.22h.012zM205 266.492V104.496l140 81zm0 0"></path>
  </symbol>
  <symbol viewBox="0 0 21 27" id="shield"><path d="m15.9375,11.0533c0.297,-0.3686 0.239,-0.9082 -0.1296,-1.20523c-0.3686,-0.29702 -0.9082,-0.23898 -1.2053,0.12964l-2.3102,2.86719c-0.4744,0.5887 -0.7737,0.9569 -1.0228,1.1895c-0.1171,0.1094 -0.1919,0.158 -0.2349,0.1795c-0.0319,0.016 -0.0434,0.0159 -0.0495,0.0159l-0.0017,0c-0.0061,0 -0.0175,0.0001 -0.0495,-0.0159c-0.043,-0.0215 -0.1178,-0.0701 -0.2348,-0.1795c-0.2491,-0.2326 -0.5485,-0.6008 -1.02283,-1.1895l-0.59601,-0.7397c-0.29701,-0.3686 -0.83661,-0.4266 -1.20523,-0.1296c-0.36861,0.297 -0.42665,0.8366 -0.12963,1.2052l0.63323,0.7859c0.42572,0.5284 0.80132,0.9946 1.15037,1.3206c0.37476,0.35 0.8407,0.6568 1.4553,0.6568c0.6145,0 1.0805,-0.3068 1.4552,-0.6568c0.3491,-0.326 0.7247,-0.7922 1.1504,-1.3206l2.3475,-2.9134z"/><path d="m9.05622,0.5155c-1.76205,0 -3.19047,1.42843 -3.19047,3.19048c0,0.81528 -0.66091,1.47619 -1.47619,1.47619l-0.35299,0c-1.80121,0 -3.40568,1.39359 -3.30796,3.32931c0.11603,2.29832 0.62649,5.88042 2.48838,9.27352c0.52147,0.9503 1.21792,1.8839 1.97079,2.7537l0.05668,0.0655c1.08306,1.2514 1.98609,2.2949 2.95692,3.0061c1.04421,0.765 2.15872,1.146 3.64022,1.146c1.4814,0 2.5959,-0.381 3.6401,-1.146c0.9709,-0.7112 1.8739,-1.7547 2.957,-3.0061l0.0566,-0.0655c0.7529,-0.8698 1.4494,-1.8034 1.9708,-2.7537c1.9238,-3.506 2.4035,-7.4676 2.4982,-9.93737c0.0738,-1.92643 -1.5193,-3.33213 -3.3305,-3.33213l-0.6736,0c-0.6311,0 -1.1428,-0.51167 -1.1428,-1.14285c0,-1.57796 -1.2792,-2.85715 -2.8572,-2.85715l-5.90398,0zm-1.47619,3.19048c0,-0.81528 0.66092,-1.47619 1.47619,-1.47619l5.90398,0c0.6312,0 1.1429,0.51167 1.1429,1.14286c0,1.57795 1.2792,2.85714 2.8571,2.85714l0.6736,0c0.9573,0 1.6496,0.71212 1.6174,1.55221c-0.0904,2.3597 -0.5505,6.012 -2.288,9.1783c-0.4445,0.8101 -1.06,1.643 -1.7641,2.4565c-1.1544,1.3338 -1.9339,2.227 -2.7305,2.8106c-0.74,0.5421 -1.497,0.8147 -2.627,0.8147c-1.1301,0 -1.88707,-0.2726 -2.62712,-0.8147c-0.79655,-0.5836 -1.57608,-1.4768 -2.7305,-2.8106c-0.7041,-0.8135 -1.3196,-1.6464 -1.7641,-2.4565c-1.6897,-3.0793 -2.17008,-6.3744 -2.27917,-8.53525c-0.0415,-0.82213 0.6357,-1.52859 1.59586,-1.52859l0.35299,0c1.76205,0 3.19047,-1.42843 3.19047,-3.19048z"/>
  </symbol>
  <symbol viewBox="0 0 24 24" id="vkt">
    <path d="M12.145 19.5c3.472 0 2.234-2.198 2.502-2.83-.004-.472-.008-.926.008-1.202.22.062.739.325 1.811 1.367 1.655 1.67 2.078 2.665 3.415 2.665h2.461c.78 0 1.186-.323 1.389-.594.196-.262.388-.722.178-1.438-.549-1.724-3.751-4.701-3.95-5.015a2.84 2.84 0 0 1 .103-.175h-.002c.632-.835 3.044-4.449 3.399-5.895a.019.019 0 0 0 .002-.008c.192-.66.016-1.088-.166-1.33-.274-.362-.71-.545-1.299-.545h-2.461c-.824 0-1.449.415-1.765 1.172-.529 1.345-2.015 4.111-3.129 5.09a64.114 64.114 0 0 1 .007-3.233c.036-1.535.152-3.029-1.441-3.029H9.339c-.998 0-1.953 1.09-.919 2.384.904 1.134.325 1.766.52 4.912-.76-.815-2.112-3.016-3.068-5.829-.268-.761-.674-1.466-1.817-1.466H1.594C.596 4.501 0 5.045 0 5.956 0 8.002 4.529 19.5 12.145 19.5zM4.055 6.001c.217 0 .239 0 .4.457.979 2.883 3.175 7.149 4.779 7.149 1.205 0 1.205-1.235 1.205-1.7l-.001-3.702C10.372 6.98 9.926 6.37 9.633 6l3.508.004c.002.017-.02 4.095.01 5.083 0 1.403 1.114 2.207 2.853.447 1.835-2.071 3.104-5.167 3.155-5.293.075-.18.14-.241.376-.241H22.006l-.002.009c-.225 1.05-2.446 4.396-3.189 5.435l-.034.05c-.327.534-.593 1.124.045 1.954h.001c.058.07.209.234.429.462.684.706 3.03 3.12 3.238 4.08-.138.022-.288.006-2.613.011-.495 0-.882-.74-2.359-2.23-1.328-1.292-2.19-1.82-2.975-1.82-1.524 0-1.413 1.237-1.399 2.733.005 1.622-.005 1.109.006 1.211-.089.035-.344.105-1.009.105C5.8 18 1.668 7.929 1.509 6.004c.055-.005.812-.002 2.546-.003z"></path>
  </symbol>
  <symbol viewBox="0 0 32 32" id="ptr">
    <path d="M27.712 10.983C27.593 5.161 22.834.943 16.383.943c-.698 0-1.408.05-2.119.151-5.168.717-9.135 4.438-9.877 9.254-.528 3.433.578 7.557 4.231 8.487l.528.132.308-.446c.107-.151 1.044-1.534.893-2.678-.075-.572-.421-.924-.629-1.132l-.101-.101c-.572-.899-.811-2.42-.572-3.697.578-3.143 3.2-5.426 6.519-5.677.233-.019.465-.025.692-.025 3.439 0 5.765 2.05 5.928 5.218.151 3.062-.767 5.853-2.402 7.286l-.107.094c-.384.34-.685.61-1.314.704a3.2 3.2 0 0 1-.478.038c-1.257 0-1.943-.83-1.968-1.647-.031-.918.333-1.924.723-2.993.478-1.314.974-2.678.792-4.086-.195-1.459-1.521-2.596-3.024-2.596-.383 0-.773.075-1.151.214-2.728 1.037-3.131 4.608-2.131 7.488-.239 1.138-.547 2.263-.874 3.451-.974 3.577-1.987 7.28-1.22 11.618l.17.962.899-.371c.874-.365 1.345-1.169 1.735-1.836.075-.126.151-.252.22-.371 1.276-2.006 1.993-4.401 2.546-6.727 1.377 1.037 2.785 1.371 4.791 1.151 5.545-.604 8.424-6.545 8.318-11.826zm-15.006 4.055.044-.22-.082-.214c-.855-2.257-.66-5.004 1.144-5.69.195-.075.396-.113.591-.113.736 0 1.383.541 1.471 1.232.138 1.031-.277 2.15-.71 3.345-.421 1.157-.861 2.351-.817 3.577.05 1.534 1.308 3.162 3.533 3.162.233 0 .471-.019.717-.057 1.088-.163 1.691-.698 2.125-1.088l.101-.088c1.98-1.741 3.106-5.017 2.93-8.544-.214-4.262-3.615-7.029-8.299-6.677-4.042.308-7.23 3.099-7.94 6.953-.308 1.66.013 3.602.792 4.828.094.145.201.258.302.358.069.075.182.182.189.233.025.214-.107.654-.333 1.088-2.276-.968-2.917-4.03-2.527-6.551.629-4.124 4.061-7.318 8.544-7.94a14.06 14.06 0 0 1 1.905-.132c5.558 0 9.663 3.577 9.757 8.506.094 4.589-2.301 9.732-6.909 10.241-.314.031-.61.05-.886.05-1.672 0-2.571-.578-3.653-1.653l-1.006-1-.308 1.383c-.591 2.628-1.276 5.375-2.634 7.513a9.248 9.248 0 0 0-.264.446 1.274 1.274 0 0 1-.101.163c-.251-3.357.578-6.4 1.389-9.361.333-1.226.685-2.502.937-3.753z"></path>
  </symbol>
  <symbol viewBox="0 0 512 512" id="whs">
    <path d="m123.832031 475.464844c39.558594 23.804687 84.789063 36.351562 131.261719 36.351562 140.824219 0 256.90625-114.914062 256.90625-255.910156 0-140.832031-115.917969-255.90625-256.90625-255.90625-140.558594 0-254.910156 114.800781-254.910156 255.90625 0 47.09375 12.550781 92.667969 36.351562 132.257812l-36.535156 123.835938zm-93.65625-219.558594c0-124.570312 100.898438-225.917969 224.917969-225.917969 125.121094 0 226.917969 101.347657 226.917969 225.917969 0 124.574219-101.796875 225.917969-226.917969 225.917969-43.054688 0-84.894531-12.195313-120.984375-35.273438l-5.765625-3.683593-83.988281 24.78125 24.777343-83.992188-3.683593-5.761719c-23.078125-36.097656-35.273438-78.277343-35.273438-121.988281zm0 0"></path>
    <path d="m124.628906 208.753906c4.953125 26.011719 19.65625 76.042969 62.464844 118.851563 42.808594 42.808593 92.839844 57.515625 118.855469 62.46875 29.789062 5.671875 73.503906 6.527343 94.867187-14.835938l11.910156-11.910156c6.011719-6.011719 9.324219-14.007813 9.324219-22.511719s-3.3125-16.496094-9.324219-22.507812l-47.628906-47.628906c-6.015625-6.015626-14.007812-9.324219-22.511718-9.324219-8.503907 0-16.496094 3.308593-22.511719 9.324219l-11.90625 11.90625c-7.273438 7.273437-21.003907 7.304687-28.332031.089843l-47.507813-49.5c-.070313-.074219-.140625-.148437-.214844-.21875-7.285156-7.285156-7.285156-19.140625 0-26.425781l11.90625-11.90625c12.445313-12.445312 12.445313-32.582031 0-45.023438l-47.628906-47.628906c-12.410156-12.410156-32.605469-12.410156-45.019531 0l-11.90625 11.910156v-.003906c-17.050782 17.054688-22.734375 53.40625-14.835938 94.875zm36.042969-73.664062c12.5-12.214844 11.832031-12.449219 13.210937-12.449219.472657 0 .945313.179687 1.304688.539063 50.1875 50.457031 48.171875 47.492187 48.171875 48.9375 0 .503906-.183594.945312-.539063 1.304687l-11.910156 11.90625c-18.964844 18.964844-19.039062 49.664063-.121094 68.714844l47.535157 49.53125c.074219.070312.144531.144531.21875.21875 18.960937 18.960937 51.808593 19.023437 70.832031 0l11.90625-11.90625c.71875-.71875 1.890625-.71875 2.609375 0 50.1875 50.453125 48.171875 47.488281 48.171875 48.933593 0 .507813-.183594.945313-.539062 1.304688l-11.910157 11.90625c-8.160156 8.160156-34.152343 13.042969-68.054687 6.585938-22.625-4.3125-66.128906-17.085938-103.257813-54.214844-37.128906-37.128906-49.902343-80.632813-54.210937-103.257813-6.460938-33.902343-1.578125-59.898437 6.582031-68.054687zm0 0"></path>
  </symbol>
  <symbol viewBox="0 0 512 512" id="tlg">
    <path d="M501.974 41.949a30.939 30.939 0 0 0-30.555-6.565L21.231 183.785C8.962 187.829.642 198.781.035 211.684c-.606 12.904 6.649 24.589 18.483 29.768l111.335 48.712 33.591 155.795c1.395 6.472 4.68 12.237 11.639 14.01 7.039 1.793 12.012-2.054 17.264-5.986l82.62-61.865 96.589 79.039c5.626 4.606 12.502 7.008 19.513 7.008a31.091 31.091 0 0 0 9.986-1.657c10.166-3.447 17.702-11.744 20.159-22.193L511.18 71.813a30.938 30.938 0 0 0-9.206-29.864zm-302.43 276.128c-.055.13-.109.277-.16.453l-18.624 65.068-20.784-96.395 142.917-79.405-99.921 104.478a15.03 15.03 0 0 0-3.428 5.801zm5.911 88.525 8.459-29.555 8.091-28.269 28.991 23.724-45.541 34.1zM481.908 64.927l-89.965 382.502c-.045.19-.105.452-.545.601-.436.148-.648-.021-.798-.145l-105.691-86.488-.008-.007-48.969-40.072L393.255 156.82a15.035 15.035 0 0 0 1.035-19.579 15.034 15.034 0 0 0-19.204-3.955L142.135 262.715 30.572 213.902c-.34-.148-.527-.231-.5-.806.027-.573.221-.638.573-.754l450.188-148.4c.218-.071.464-.153.826.177.362.332.302.584.249.808z"></path>
  </symbol>
  <symbol viewBox="0 0 512 512" id="ins">
    <path d="m373.40625 0h-234.8125c-76.421875 0-138.59375 62.171875-138.59375 138.59375v234.816406c0 76.417969 62.171875 138.589844 138.59375 138.589844h234.816406c76.417969 0 138.589844-62.171875 138.589844-138.589844v-234.816406c0-76.421875-62.171875-138.59375-138.59375-138.59375zm108.578125 373.410156c0 59.867188-48.707031 108.574219-108.578125 108.574219h-234.8125c-59.871094 0-108.578125-48.707031-108.578125-108.574219v-234.816406c0-59.871094 48.707031-108.578125 108.578125-108.578125h234.816406c59.867188 0 108.574219 48.707031 108.574219 108.578125zm0 0"></path>
    <path d="m256 116.003906c-77.195312 0-139.996094 62.800782-139.996094 139.996094s62.800782 139.996094 139.996094 139.996094 139.996094-62.800782 139.996094-139.996094-62.800782-139.996094-139.996094-139.996094zm0 249.976563c-60.640625 0-109.980469-49.335938-109.980469-109.980469 0-60.640625 49.339844-109.980469 109.980469-109.980469 60.644531 0 109.980469 49.339844 109.980469 109.980469 0 60.644531-49.335938 109.980469-109.980469 109.980469zm0 0"></path>
    <path d="m399.34375 66.285156c-22.8125 0-41.367188 18.558594-41.367188 41.367188 0 22.8125 18.554688 41.371094 41.367188 41.371094s41.371094-18.558594 41.371094-41.371094-18.558594-41.367188-41.371094-41.367188zm0 52.71875c-6.257812 0-11.351562-5.09375-11.351562-11.351562 0-6.261719 5.09375-11.351563 11.351562-11.351563 6.261719 0 11.355469 5.089844 11.355469 11.351563 0 6.257812-5.09375 11.351562-11.355469 11.351562zm0 0"></path>
  </symbol>
  <symbol viewBox="0 0 28 28" id="zen">
    <path fill="transparent" d="M16.7 16.7c-2.2 2.27-2.36 5.1-2.55 11.3 5.78 0 9.77-.02 11.83-2.02 2-2.06 2.02-6.24 2.02-11.83-6.2.2-9.03.35-11.3 2.55M0 14.15c0 5.59.02 9.77 2.02 11.83 2.06 2 6.05 2.02 11.83 2.02-.2-6.2-.35-9.03-2.55-11.3-2.27-2.2-5.1-2.36-11.3-2.55M13.85 0C8.08 0 4.08.02 2.02 2.02.02 4.08 0 8.26 0 13.85c6.2-.2 9.03-.35 11.3-2.55 2.2-2.27 2.36-5.1 2.55-11.3m2.85 11.3C14.5 9.03 14.34 6.2 14.15 0c5.78 0 9.77.02 11.83 2.02 2 2.06 2.02 6.24 2.02 11.83-6.2-.2-9.03-.35-11.3-2.55"></path>
    <path d="M28 14.15v-.3c-6.2-.2-9.03-.35-11.3-2.55-2.2-2.27-2.36-5.1-2.55-11.3h-.3c-.2 6.2-.35 9.03-2.55 11.3-2.27 2.2-5.1 2.36-11.3 2.55v.3c6.2.2 9.03.35 11.3 2.55 2.2 2.27 2.36 5.1 2.55 11.3h.3c.2-6.2.35-9.03 2.55-11.3 2.27-2.2 5.1-2.36 11.3-2.55"></path>
  </symbol>
  <symbol viewBox="0 0 26 26" id="cart"><path d="M24.25 2.59h-2.836c-.027 0-.05.012-.076.015a.716.716 0 0 0-.496.266.723.723 0 0 0-.135.258c-.008.027-.026.048-.03.076l-.43 2.347L1.893 6.625c-.07-.005-.132.005-.21.013a.75.75 0 0 0-.669.892l1.279 6.975c.292 1.081 1.193 2.173 2.548 2.173h13.37l-.286 1.565H6.675a2.587 2.587 0 0 0-2.584 2.583c0 1.425 1.16 2.584 2.584 2.584s2.583-1.159 2.583-2.584c0-.388-.092-.753-.246-1.083h6.908c-.154.33-.246.695-.246 1.083 0 1.425 1.159 2.584 2.583 2.584s2.584-1.159 2.584-2.584a2.578 2.578 0 0 0-1.442-2.306l2.64-14.43h2.211a.75.75 0 0 0 0-1.5zm-5.228 9.655-3.178.05.173-1.842 3.351-.1-.346 1.892zM3.144 10.839l3.176-.095.208 1.697-3.082.048-.302-1.65zm4.18-.126 3.49-.104v1.765l-3.28.051-.21-1.712zm3.49-1.105-3.613.108-.23-1.885 3.843-.225v2.002zm1-2.06 3.49-.204-.2 2.135-3.29.099v-2.03zm-1 5.826v1.804H7.87l-.215-1.754 3.16-.05zm1-.016 2.93-.046-.176 1.866h-2.754v-1.82zm0-1v-1.78l3.196-.095-.172 1.827-3.024.048zm7.739-3.012-3.442.103.204-2.164 3.654-.214-.416 2.275zM5.97 7.889l.227 1.857-3.236.097a78.876 78.876 0 0 0-.337-1.758l3.346-.196zm-2.216 6.285-.126-.687 3.021-.048.213 1.74H4.841c-.642 0-1-.697-1.086-1.005zm11.818 1.004.177-1.882 3.089-.048-.354 1.93h-2.912zm-7.815 5.648c0 .598-.486 1.084-1.083 1.084s-1.084-.486-1.084-1.084a1.084 1.084 0 0 1 2.167 0zm10.5 1.084a1.085 1.085 0 0 1 0-2.167 1.084 1.084 0 0 1 0 2.167z"/></symbol>
  <symbol viewBox="0 0 512 512" id="close"><path d="M437.019 74.98C388.667 26.628 324.379 0 256 0S123.333 26.628 74.981 74.981C26.629 123.333 0 187.62 0 256.001c0 68.38 26.628 132.668 74.98 181.02C123.332 485.371 187.619 512 255.999 512s132.668-26.628 181.02-74.98C485.371 388.667 512 324.38 512 256s-26.629-132.667-74.981-181.02zm-21.213 340.827C373.12 458.492 316.366 482 255.999 482s-117.121-23.508-159.806-66.193C53.507 373.121 30 316.368 30 256.001S53.509 138.88 96.194 96.194C138.88 53.508 195.633 30 256 30s117.12 23.508 159.807 66.193c88.115 88.118 88.115 231.496-.001 319.614z"/><path d="m368.854 347.642-91.641-91.641 91.641-91.641c5.857-5.858 5.857-15.355-.001-21.212-5.857-5.858-15.355-5.858-21.213 0L256 234.788l-91.641-91.641c-5.857-5.858-15.355-5.858-21.213 0-5.858 5.858-5.858 15.355 0 21.213l91.641 91.641-91.641 91.641c-5.858 5.858-5.858 15.355 0 21.213a14.953 14.953 0 0 0 10.606 4.393c3.839 0 7.678-1.464 10.607-4.393L256 277.214l91.641 91.641c2.929 2.929 6.768 4.393 10.607 4.393s7.678-1.464 10.606-4.393c5.858-5.858 5.858-15.355 0-21.213z"/></symbol>
  <symbol viewBox="0 0 24 24" id="to-top"><path d="M12 2a10 10 0 1 0 0 20 10 10 0 0 0 0-20Zm4 11.8-.5.2c-.2 0-.3 0-.5-.2l-3-3-3 3c-.3.3-.8.3-1 0a.8.8 0 0 1 0-1l3.5-3.6c.3-.3.7-.3 1 0l3.6 3.5c.3.3.3.8 0 1Z"/></symbol>
  <symbol viewBox="0 0 452.84 452.84" id="mail"><path d="m449.483 190.4.001-.001-57.824-38.335V23.93a7.5 7.5 0 0 0-7.5-7.5H68.67a7.5 7.5 0 0 0-7.5 7.5v128.143L3.356 190.399l.001.002A7.49 7.49 0 0 0 0 196.65v232.26a7.5 7.5 0 0 0 7.5 7.5h437.84a7.5 7.5 0 0 0 7.5-7.5V196.65a7.493 7.493 0 0 0-3.357-6.25zM61.17 216.629 37.645 204.15H61.17v12.479zM15 209.118l172.475 91.49L15 414.935V209.118zm211.417 83.671L420.454 421.41H32.381l194.036-128.621zm38.945 7.82 172.477-91.491v205.821l-172.477-114.33zM391.66 204.15h23.536l-23.536 12.484V204.15zm28.794-15H391.66v-19.09l28.794 19.09zM376.66 31.43v193.161l-125.527 66.586-20.573-13.637a7.499 7.499 0 0 0-8.287 0l-20.57 13.635L76.17 224.586V31.43h300.49zM61.17 189.15H32.388l28.782-19.08v19.08z"/><path d="M226.415 213.671h59.754a7.5 7.5 0 0 0 0-15h-59.754c-28.813 0-52.254-23.441-52.254-52.254v-2.213c0-28.813 23.441-52.254 52.254-52.254s52.254 23.441 52.254 52.254v5.533c0 6.237-5.074 11.312-11.312 11.312s-11.312-5.074-11.312-11.312v-10.512c0-17.864-14.533-32.398-32.397-32.398s-32.397 14.533-32.397 32.398c0 17.864 14.533 32.397 32.397 32.397 8.169 0 15.636-3.045 21.34-8.052 4.644 7.483 12.932 12.478 22.369 12.478 14.508 0 26.312-11.803 26.312-26.312v-5.533c0-37.084-30.17-67.254-67.254-67.254s-67.254 30.17-67.254 67.254v2.213c0 37.085 30.17 67.255 67.254 67.255zm-2.767-57.049c-9.593 0-17.397-7.804-17.397-17.397s7.805-17.398 17.397-17.398 17.397 7.805 17.397 17.398-7.804 17.397-17.397 17.397z"/></symbol>
  <symbol viewBox="0 0 496 512" id="github"><path d="M165.9 397.4c0 2-2.3 3.6-5.2 3.6-3.3.3-5.6-1.3-5.6-3.6 0-2 2.3-3.6 5.2-3.6 3-.3 5.6 1.3 5.6 3.6zm-31.1-4.5c-.7 2 1.3 4.3 4.3 4.9 2.6 1 5.6 0 6.2-2s-1.3-4.3-4.3-5.2c-2.6-.7-5.5.3-6.2 2.3zm44.2-1.7c-2.9.7-4.9 2.6-4.6 4.9.3 2 2.9 3.3 5.9 2.6 2.9-.7 4.9-2.6 4.6-4.6-.3-1.9-3-3.2-5.9-2.9zM244.8 8C106.1 8 0 113.3 0 252c0 110.9 69.8 205.8 169.5 239.2 12.8 2.3 17.3-5.6 17.3-12.1 0-6.2-.3-40.4-.3-61.4 0 0-70 15-84.7-29.8 0 0-11.4-29.1-27.8-36.6 0 0-22.9-15.7 1.6-15.4 0 0 24.9 2 38.6 25.8 21.9 38.6 58.6 27.5 72.9 20.9 2.3-16 8.8-27.1 16-33.7-55.9-6.2-112.3-14.3-112.3-110.5 0-27.5 7.6-41.3 23.6-58.9-2.6-6.5-11.1-33.3 2.6-67.9 20.9-6.5 69 27 69 27 20-5.6 41.5-8.5 62.8-8.5s42.8 2.9 62.8 8.5c0 0 48.1-33.6 69-27 13.7 34.7 5.2 61.4 2.6 67.9 16 17.7 25.8 31.5 25.8 58.9 0 96.5-58.9 104.2-114.8 110.5 9.2 7.9 17 22.9 17 46.4 0 33.7-.3 75.4-.3 83.6 0 6.5 4.6 14.4 17.3 12.1C428.2 457.8 496 362.9 496 252 496 113.3 383.5 8 244.8 8zM97.2 352.9c-1.3 1-1 3.3.7 5.2 1.6 1.6 3.9 2.3 5.2 1 1.3-1 1-3.3-.7-5.2-1.6-1.6-3.9-2.3-5.2-1zm-10.8-8.1c-.7 1.3.3 2.9 2.3 3.9 1.6 1 3.6.7 4.3-.7.7-1.3-.3-2.9-2.3-3.9-2-.6-3.6-.3-4.3.7zm32.4 35.6c-1.6 1.3-1 4.3 1.3 6.2 2.3 2.3 5.2 2.6 6.5 1 1.3-1.3.7-4.3-1.3-6.2-2.2-2.3-5.2-2.6-6.5-1zm-11.4-14.7c-1.6 1-1.6 3.6 0 5.9 1.6 2.3 4.3 3.3 5.6 2.3 1.6-1.3 1.6-3.9 0-6.2-1.4-2.3-4-3.3-5.6-2z"/></symbol>
  <symbol viewBox="0 0 448 512" id="lin"><path d="M100.28 448H7.4V148.9h92.88zM53.79 108.1C24.09 108.1 0 83.5 0 53.8a53.79 53.79 0 0 1 107.58 0c0 29.7-24.1 54.3-53.79 54.3zM447.9 448h-92.68V302.4c0-34.7-.7-79.2-48.29-79.2-48.29 0-55.69 37.7-55.69 76.7V448h-92.78V148.9h89.08v40.8h1.3c12.4-23.5 42.69-48.3 87.88-48.3 94 0 111.28 61.9 111.28 142.3V448z"/></symbol>
  <symbol viewBox="0 0 24 24" id="burger"><path d="M3.5 7a.5.5 0 0 1 0-1h17a.5.5 0 1 1 0 1h-17Zm0 5a.5.5 0 1 1 0-1h17a.5.5 0 1 1 0 1h-17Zm0 5a.5.5 0 1 1 0-1h17a.5.5 0 1 1 0 1h-17Z"/></symbol>
  <symbol viewBox="0 0 14 14" id="ok"><path d="M8.655 10.133a7.411 7.411 0 0 0 2.208-.861c.511-.322.65-.972.307-1.455-.328-.462-.984-.602-1.492-.318a5.086 5.086 0 0 1-5.116 0c-.517-.309-1.205-.162-1.533.324v.003c-.328.49-.172 1.136.348 1.443l.002.002a7.34 7.34 0 0 0 2.203.86l-2.124 2a.994.994 0 0 0-.017 1.464l.02.018c.21.205.495.306.78.306s.57-.101.78-.306l2.1-1.965 2.085 1.967c.444.4 1.148.39 1.574-.027a1.004 1.004 0 0 0 0-1.455l-2.125-2zM7.12 7.215c2.098-.002 3.796-1.602 3.798-3.575 0-1.971-1.705-3.577-3.798-3.577S3.32 1.669 3.32 3.64c.003 1.976 1.703 3.575 3.799 3.577v-.002zm0-5.054c.867 0 1.57.663 1.57 1.479 0 .819-.703 1.48-1.57 1.482-.867-.002-1.571-.663-1.573-1.482.002-.816.706-1.48 1.573-1.482v.003z"/></symbol>
  <symbol viewBox="0 0 20 20" id="tel"><path d="M17.256 12.253c-.096-.667-.611-1.187-1.274-1.342-2.577-.604-3.223-2.088-3.332-3.734C12.193 7.092 11.38 7 10 7s-2.193.092-2.65.177c-.109 1.646-.755 3.13-3.332 3.734-.663.156-1.178.675-1.274 1.342l-.497 3.442C2.072 16.907 2.962 18 4.2 18h11.6c1.237 0 2.128-1.093 1.953-2.305l-.497-3.442zM10 15.492c-1.395 0-2.526-1.12-2.526-2.5s1.131-2.5 2.526-2.5 2.526 1.12 2.526 2.5-1.132 2.5-2.526 2.5zM19.95 6c-.024-1.5-3.842-3.999-9.95-4C3.891 2.001.073 4.5.05 6s.021 3.452 2.535 3.127c2.941-.381 2.76-1.408 2.76-2.876C5.345 5.227 7.737 4.98 10 4.98s4.654.247 4.655 1.271c0 1.468-.181 2.495 2.76 2.876C19.928 9.452 19.973 7.5 19.95 6z"/></symbol>
  <symbol viewBox="0 0 18 22" id="map"><path d="M7 .833C3.509.833.668 3.725.668 7.28c0 1.2.327 2.372.946 3.389l5.026 8.245a.526.526 0 0 0 .448.254h.004a.526.526 0 0 0 .449-.261l4.897-8.325a6.526 6.526 0 0 0 .894-3.302c0-3.554-2.84-6.446-6.332-6.446zm4.533 9.196L7.08 17.598l-4.57-7.496a5.436 5.436 0 0 1-.793-2.823C1.717 4.317 4.09 1.9 7 1.9s5.28 2.417 5.28 5.379a5.44 5.44 0 0 1-.747 2.75z"/><path d="M7 3.631a3.56 3.56 0 0 0-3.556 3.557A3.552 3.552 0 0 0 7 10.744a3.55 3.55 0 0 0 3.556-3.556A3.56 3.56 0 0 0 7 3.63zm0 5.935a2.38 2.38 0 0 1-2.379-2.378c0-1.308 1.072-2.38 2.379-2.38s2.375 1.072 2.375 2.38A2.376 2.376 0 0 1 7 9.566z"/></symbol>
</svg>