<svg xmlns="http://www.w3.org/2000/svg" viewBox="0 0 26 28" fill="none">
  <path d="M18.2713 10.9213C18.5744 10.5576 18.5252 10.0172 18.1616 9.7141C17.7979 9.41105 17.2574 9.46018 16.9544 9.82385L12.996 14.5739C12.5722 15.0824 12.312 15.3914 12.0976 15.585C11.9982 15.6748 11.9392 15.7106 11.911 15.7243C11.9052 15.727 11.9011 15.7287 11.8985 15.7297C11.8985 15.7297 11.8986 15.7297 11.8985 15.7297C11.896 15.7287 11.8919 15.727 11.8861 15.7243C11.8579 15.7106 11.7989 15.6748 11.6995 15.585C11.4851 15.3914 11.2249 15.0824 10.8011 14.5739L9.12845 12.5667C8.8254 12.203 8.28491 12.1539 7.92125 12.457C7.55758 12.76 7.50845 13.3005 7.8115 13.6642L9.52065 15.7151C9.89604 16.1657 10.2344 16.5719 10.5506 16.8573C10.8945 17.1679 11.3277 17.4445 11.8985 17.4445C12.4694 17.4445 12.9026 17.1679 13.2465 16.8573C13.5626 16.5719 13.9011 16.1657 14.2764 15.7152L18.2713 10.9213Z" fill="url(#paint0_linear_203_9)"/>
  <path fill-rule="evenodd" clip-rule="evenodd" d="M17.115 3.23729C15.9454 -0.860915 10.1374 -0.860915 8.96786 3.23729C8.59436 4.54604 7.24977 5.32234 5.9296 4.99142C1.79567 3.9552 -1.1083 8.98503 1.85606 12.047C2.80272 13.0249 2.80272 14.5774 1.85606 15.5553C-1.1083 18.6173 1.79567 23.6471 5.9296 22.6109C7.24977 22.28 8.59436 23.0563 8.96786 24.365C10.1374 28.4632 15.9454 28.4632 17.115 24.365C17.4885 23.0563 18.833 22.28 20.1532 22.6109C24.2871 23.6471 27.1911 18.6173 24.2268 15.5553C23.2801 14.5774 23.2801 13.0249 24.2268 12.047C27.1911 8.98503 24.2871 3.9552 20.1532 4.99142C18.833 5.32234 17.4885 4.54604 17.115 3.23729ZM10.6163 3.70774C11.3126 1.26798 14.7702 1.26798 15.4665 3.70774C16.0939 5.90613 18.3525 7.21012 20.57 6.65426C23.031 6.03738 24.7599 9.03176 22.9951 10.8546C21.4049 12.4972 21.4049 15.1051 22.9951 16.7477C24.7599 18.5705 23.031 21.5649 20.57 20.948C18.3525 20.3922 16.0939 21.6962 15.4665 23.8946C14.7702 26.3343 11.3126 26.3343 10.6163 23.8946C9.98894 21.6962 7.73035 20.3922 5.51279 20.948C3.05177 21.5649 1.32296 18.5705 3.08771 16.7477C4.67788 15.1051 4.67788 12.4972 3.08771 10.8546C1.32296 9.03176 3.05177 6.03738 5.51279 6.65426C7.73035 7.21012 9.98894 5.90613 10.6163 3.70774Z" fill="url(#paint1_linear_203_9)"/>
  <defs>
    <linearGradient id="paint0_linear_203_9" x1="25.4387" y1="29.4212" x2="-2.34053" y2="14.0892" gradientUnits="userSpaceOnUse">
      <stop stop-color="white"/>
      <stop offset="1" stop-color="white" stop-opacity="0.29"/>
    </linearGradient>
    <linearGradient id="paint1_linear_203_9" x1="25.4387" y1="29.4212" x2="-2.34053" y2="14.0892" gradientUnits="userSpaceOnUse">
      <stop stop-color="white"/>
      <stop offset="1" stop-color="white" stop-opacity="0.29"/>
    </linearGradient>
  </defs>
</svg>