<svg xmlns="http://www.w3.org/2000/svg" viewBox="0 0 26 23" fill="none">
  <path d="M18.5715 12.571C18.5715 12.0976 18.1877 11.7138 17.7143 11.7138C17.2409 11.7138 16.8572 12.0976 16.8572 12.571L16.8572 15.9996C16.8572 16.473 17.2409 16.8567 17.7143 16.8567C18.1877 16.8567 18.5715 16.473 18.5715 15.9996L18.5715 12.571Z" fill="url(#paint0_linear_203_2)"/>
  <path d="M14 6.85671C14 6.38332 13.6163 5.99956 13.1429 5.99956C12.6695 5.99956 12.2858 6.38332 12.2858 6.85671L12.2858 15.9996C12.2858 16.473 12.6695 16.8567 13.1429 16.8567C13.6163 16.8567 14 16.473 14 15.9996L14 6.85671Z" fill="url(#paint1_linear_203_2)"/>
  <path d="M9.42862 12.571C9.42862 12.0976 9.04486 11.7138 8.57148 11.7138C8.09809 11.7138 7.71433 12.0976 7.71433 12.571L7.71433 15.9996C7.71433 16.473 8.09809 16.8567 8.57148 16.8567C9.04486 16.8567 9.42862 16.473 9.42862 15.9996L9.42862 12.571Z" fill="url(#paint2_linear_203_2)"/>
  <path fill-rule="evenodd" clip-rule="evenodd" d="M25.2872 16.5293C25.4286 15.224 25.4286 13.5787 25.4286 11.4799L25.4286 11.3764C25.4286 9.27752 25.4286 7.63226 25.2872 6.32697C25.1429 4.99492 24.8431 3.91563 24.1736 2.99412C23.7683 2.43624 23.2777 1.94563 22.7198 1.54031C21.7983 0.870792 20.719 0.571 19.3869 0.426682C18.0816 0.285261 16.4364 0.285269 14.3375 0.285278L11.9483 0.285278C9.84944 0.285268 8.20417 0.285261 6.89887 0.426681C5.56683 0.570999 4.48754 0.870791 3.56603 1.54031C3.00815 1.94563 2.51754 2.43624 2.11222 2.99412C1.4427 3.91563 1.14291 4.99492 0.998593 6.32696C0.857174 7.63224 0.857181 9.27747 0.857189 11.3763L0.857189 11.4799C0.85718 13.5787 0.857174 15.224 0.998592 16.5293C1.14291 17.8613 1.4427 18.9406 2.11222 19.8622C2.51754 20.42 3.00815 20.9106 3.56603 21.316C4.48754 21.9855 5.56683 22.2853 6.89887 22.4296C8.20415 22.571 9.84938 22.571 11.9482 22.571L14.3375 22.571C16.4363 22.571 18.0817 22.571 19.3869 22.4296C20.719 22.2853 21.7983 21.9855 22.7198 21.316C23.2777 20.9106 23.7683 20.42 24.1736 19.8622C24.8431 18.9406 25.1429 17.8613 25.2872 16.5293ZM22.7867 4.00175C23.2085 4.58233 23.4544 5.32543 23.5829 6.51162C23.7132 7.71384 23.7143 9.26634 23.7143 11.4281C23.7143 13.5899 23.7132 15.1424 23.5829 16.3447C23.4544 17.5308 23.2085 18.2739 22.7867 18.8545C22.4871 19.2669 22.1245 19.6295 21.7121 19.9291C21.1316 20.3509 20.3885 20.5968 19.2023 20.7253C18.0001 20.8555 16.4476 20.8567 14.2858 20.8567L12 20.8567C9.83825 20.8567 8.28575 20.8555 7.08352 20.7253C5.89734 20.5968 5.15424 20.3509 4.57366 19.9291C4.16131 19.6295 3.79869 19.2669 3.4991 18.8545C3.07729 18.2739 2.83142 17.5308 2.7029 16.3447C2.57265 15.1424 2.57147 13.5899 2.57148 11.4281C2.57148 9.26634 2.57265 7.71384 2.7029 6.51161C2.83142 5.32543 3.07729 4.58233 3.49911 4.00175C3.79869 3.5894 4.16131 3.22678 4.57366 2.9272C5.15424 2.50538 5.89734 2.25951 7.08353 2.13099C8.28575 2.00074 9.83825 1.99956 12 1.99956L14.2858 1.99956C16.4476 1.99956 18.0001 2.00074 19.2023 2.13099C20.3885 2.25951 21.1316 2.50538 21.7121 2.9272C22.1245 3.22678 22.4871 3.5894 22.7867 4.00175Z" fill="url(#paint3_linear_203_2)"/>
  <defs>
    <linearGradient id="paint0_linear_203_2" x1="-0.92884" y1="22.571" x2="12.8349" y2="-2.42406" gradientUnits="userSpaceOnUse">
      <stop stop-color="white"/>
      <stop offset="1" stop-color="white" stop-opacity="0.29"/>
    </linearGradient>
    <linearGradient id="paint1_linear_203_2" x1="-0.92884" y1="22.571" x2="12.8349" y2="-2.42406" gradientUnits="userSpaceOnUse">
      <stop stop-color="white"/>
      <stop offset="1" stop-color="white" stop-opacity="0.29"/>
    </linearGradient>
    <linearGradient id="paint2_linear_203_2" x1="-0.92884" y1="22.571" x2="12.8349" y2="-2.42406" gradientUnits="userSpaceOnUse">
      <stop stop-color="white"/>
      <stop offset="1" stop-color="white" stop-opacity="0.29"/>
    </linearGradient>
    <linearGradient id="paint3_linear_203_2" x1="-0.92884" y1="22.571" x2="12.8349" y2="-2.42406" gradientUnits="userSpaceOnUse">
      <stop stop-color="white"/>
      <stop offset="1" stop-color="white" stop-opacity="0.29"/>
    </linearGradient>
  </defs>
</svg>