<svg xmlns="http://www.w3.org/2000/svg" viewBox="0 0 28 29" fill="none">
  <path d="M25.4285 15.5713V10.9999C25.4285 5.28559 23.1428 2.99988 17.4285 2.99988H10.5714C4.8571 2.99988 2.57139 5.28559 2.57139 10.9999V17.857C2.57139 23.5713 4.8571 25.857 10.5714 25.857H15.1428" stroke="url(#paint0_linear_203_13)" stroke-width="1.71429" stroke-linecap="round" stroke-linejoin="round"/>
  <path d="M8.66283 17.2728L11.3828 13.7414C11.7714 13.2385 12.4914 13.1471 12.9943 13.5357L15.0857 15.1814C15.5886 15.5699 16.3085 15.4785 16.6971 14.9871L19.3372 11.5814" stroke="#292D32" stroke-width="1.71429" stroke-linecap="round" stroke-linejoin="round"/>
  <path d="M8.66283 17.2728L11.3828 13.7414C11.7714 13.2385 12.4914 13.1471 12.9943 13.5357L15.0857 15.1814C15.5886 15.5699 16.3085 15.4785 16.6971 14.9871L19.3372 11.5814" stroke="url(#paint1_linear_203_13)" stroke-width="1.71429" stroke-linecap="round" stroke-linejoin="round"/>
  <path d="M22.5485 18.7952L22.8685 19.4466C23.0285 19.7666 23.4285 20.0638 23.7828 20.1323L24.2171 20.2009C25.52 20.418 25.8285 21.378 24.8914 22.3266L24.4914 22.7266C24.2285 23.0009 24.08 23.5266 24.16 23.8923L24.2171 24.1323C24.5714 25.7095 23.7371 26.3152 22.3657 25.4923L22.0685 25.3209C21.7142 25.1152 21.1428 25.1152 20.7885 25.3209L20.4914 25.4923C19.1085 26.3266 18.2742 25.7095 18.6399 24.1323L18.6971 23.8923C18.7771 23.5266 18.6285 23.0009 18.3657 22.7266L17.9657 22.3266C17.0285 21.378 17.3371 20.418 18.6399 20.2009L19.0742 20.1323C19.4171 20.0752 19.8285 19.7666 19.9885 19.4466L20.3085 18.7952C20.9257 17.5495 21.9314 17.5495 22.5485 18.7952Z" stroke="#292D32" stroke-width="1.71429" stroke-linecap="round" stroke-linejoin="round"/>
  <path d="M22.5485 18.7952L22.8685 19.4466C23.0285 19.7666 23.4285 20.0638 23.7828 20.1323L24.2171 20.2009C25.52 20.418 25.8285 21.378 24.8914 22.3266L24.4914 22.7266C24.2285 23.0009 24.08 23.5266 24.16 23.8923L24.2171 24.1323C24.5714 25.7095 23.7371 26.3152 22.3657 25.4923L22.0685 25.3209C21.7142 25.1152 21.1428 25.1152 20.7885 25.3209L20.4914 25.4923C19.1085 26.3266 18.2742 25.7095 18.6399 24.1323L18.6971 23.8923C18.7771 23.5266 18.6285 23.0009 18.3657 22.7266L17.9657 22.3266C17.0285 21.378 17.3371 20.418 18.6399 20.2009L19.0742 20.1323C19.4171 20.0752 19.8285 19.7666 19.9885 19.4466L20.3085 18.7952C20.9257 17.5495 21.9314 17.5495 22.5485 18.7952Z" stroke="url(#paint2_linear_203_13)" stroke-width="1.71429" stroke-linecap="round" stroke-linejoin="round"/>
  <defs>
    <linearGradient id="paint0_linear_203_13" x1="25.4285" y1="27.5184" x2="1.01743" y2="12.6975" gradientUnits="userSpaceOnUse">
      <stop stop-color="white"/>
      <stop offset="1" stop-color="white" stop-opacity="0.29"/>
    </linearGradient>
    <linearGradient id="paint1_linear_203_13" x1="19.3372" y1="17.6865" x2="12.5436" y2="9.9507" gradientUnits="userSpaceOnUse">
      <stop stop-color="white"/>
      <stop offset="1" stop-color="white" stop-opacity="0.29"/>
    </linearGradient>
    <linearGradient id="paint2_linear_203_13" x1="25.4343" y1="26.4464" x2="16.8826" y2="21.2491" gradientUnits="userSpaceOnUse">
      <stop stop-color="white"/>
      <stop offset="1" stop-color="white" stop-opacity="0.29"/>
    </linearGradient>
  </defs>
</svg>