<svg xmlns="http://www.w3.org/2000/svg" viewBox="0 0 21 22" fill="none">
  <path d="M10.3301 7.67662L9.41294 9.27091C9.20722 9.62233 9.37865 9.91376 9.78151 9.91376H10.8701C11.2815 9.91376 11.4444 10.2052 11.2386 10.5566L10.3301 12.1509" stroke="#A2A2A2" stroke-width="1.28571" stroke-linecap="round" stroke-linejoin="round"/>
  <path d="M7.1586 16.3769V15.3826C5.18717 14.1912 3.56717 11.8683 3.56717 9.39977C3.56717 5.15692 7.46717 1.8312 11.8729 2.7912C13.81 3.21977 15.5072 4.50549 16.39 6.27977C18.1815 9.87977 16.2957 13.7026 13.5272 15.3741V16.3683C13.5272 16.6169 13.6215 17.1912 12.7043 17.1912H7.98146C7.0386 17.1998 7.1586 16.8312 7.1586 16.3769Z" stroke="#A2A2A2" stroke-width="1.28571" stroke-linecap="round" stroke-linejoin="round"/>
  <path d="M7.33002 19.7712C9.29288 19.2141 11.3672 19.2141 13.33 19.7712" stroke="#A2A2A2" stroke-width="1.28571" stroke-linecap="round" stroke-linejoin="round"/>
</svg>