<svg xmlns="http://www.w3.org/2000/svg" viewBox="0 0 21 21" fill="none">
  <path d="M8.16854 18.8776L10.1657 17.1976C10.4657 16.9404 10.9628 16.9404 11.2628 17.1976L13.26 18.8776C13.7228 19.109 14.2885 18.8776 14.46 18.3804L14.8371 17.2404C14.9314 16.9661 14.8371 16.5633 14.6314 16.3576L12.6857 14.4033C12.54 14.2661 12.4285 13.9919 12.4285 13.7947V11.3519C12.4285 10.9919 12.6943 10.8204 13.0285 10.9576L17.2371 12.7747C17.8971 13.0576 18.4371 12.7061 18.4371 11.9861V10.8804C18.4371 10.3061 18.0085 9.64614 17.4771 9.42328L12.6857 7.35757C12.5485 7.29757 12.4285 7.11757 12.4285 6.96328V4.39185C12.4285 3.58614 11.8371 2.63471 11.1171 2.26614C10.86 2.13757 10.56 2.13757 10.3028 2.26614C9.58282 2.63471 8.99139 3.59471 8.99139 4.40042V6.97185C8.99139 7.12614 8.87139 7.30614 8.73425 7.36614L3.95139 9.43185C3.41997 9.64614 2.99139 10.3061 2.99139 10.8804V11.9861C2.99139 12.7061 3.53139 13.0576 4.19139 12.7747L8.39997 10.9576C8.72568 10.8119 8.99997 10.9919 8.99997 11.3519V13.7947C8.99997 13.9919 8.88854 14.2661 8.75139 14.4033L6.80568 16.3576C6.59997 16.5633 6.50568 16.9576 6.59997 17.2404L6.97711 18.3804C7.13139 18.8776 7.69711 19.1176 8.16854 18.8776Z" stroke="#A2A2A2" stroke-width="1.28571" stroke-linecap="round" stroke-linejoin="round"/>
</svg>