<svg
    xmlns="http://www.w3.org/2000/svg" width="23" height="25" viewBox="0 0 23 25" fill="none">
    <path d="M15.9375 11.0533C16.2345 10.6847 16.1765 10.1451 15.8079 9.84807C15.4393 9.55105 14.8997 9.60909 14.6026 9.97771L12.2924 12.8449C11.818 13.4336 11.5187 13.8018 11.2696 14.0344C11.1525 14.1438 11.0777 14.1924 11.0347 14.2139C11.0028 14.2299 10.9913 14.2298 10.9852 14.2298H10.9835C10.9774 14.2298 10.966 14.2299 10.934 14.2139C10.891 14.1924 10.8162 14.1438 10.6992 14.0344C10.4501 13.8018 10.1507 13.4336 9.67637 12.8449L9.08036 12.1052C8.78335 11.7366 8.24375 11.6786 7.87513 11.9756C7.50652 12.2726 7.44848 12.8122 7.7455 13.1808L8.37873 13.9667C8.80445 14.4951 9.18005 14.9613 9.5291 15.2873C9.90386 15.6373 10.3698 15.9441 10.9844 15.9441C11.5989 15.9441 12.0649 15.6373 12.4396 15.2873C12.7887 14.9613 13.1643 14.4951 13.59 13.9667L15.9375 11.0533Z" fill="url(#paint0_linear_203_11)"/>
    <path fill-rule="evenodd" clip-rule="evenodd" d="M9.05622 0.515503C7.29417 0.515503 5.86575 1.94393 5.86575 3.70598C5.86575 4.52126 5.20484 5.18217 4.38956 5.18217H4.03657C2.23536 5.18217 0.630887 6.57576 0.728609 8.51148C0.844636 10.8098 1.3551 14.3919 3.21699 17.785C3.73846 18.7353 4.43491 19.6689 5.18778 20.5387L5.24446 20.6042C6.32752 21.8556 7.23055 22.8991 8.20138 23.6103C9.24559 24.3753 10.3601 24.7563 11.8416 24.7563C13.323 24.7563 14.4375 24.3753 15.4817 23.6103C16.4526 22.8991 17.3556 21.8556 18.4387 20.6042L18.4953 20.5387C19.2482 19.6689 19.9447 18.7353 20.4661 17.785C22.3899 14.279 22.8696 10.3174 22.9643 7.84763C23.0381 5.9212 21.445 4.5155 19.6338 4.5155H18.9602C18.3291 4.5155 17.8174 4.00383 17.8174 3.37265C17.8174 1.79469 16.5382 0.515503 14.9602 0.515503H9.05622ZM7.58003 3.70598C7.58003 2.8907 8.24095 2.22979 9.05622 2.22979H14.9602C15.5914 2.22979 16.1031 2.74146 16.1031 3.37265C16.1031 4.9506 17.3823 6.22979 18.9602 6.22979H19.6338C20.5911 6.22979 21.2834 6.94191 21.2512 7.782C21.1608 10.1417 20.7007 13.794 18.9632 16.9603C18.5187 17.7704 17.9032 18.6033 17.1991 19.4168C16.0447 20.7506 15.2652 21.6438 14.4686 22.2274C13.7286 22.7695 12.9716 23.0421 11.8416 23.0421C10.7115 23.0421 9.95453 22.7695 9.21448 22.2274C8.41793 21.6438 7.6384 20.7506 6.48398 19.4168C5.77988 18.6033 5.16438 17.7704 4.71988 16.9603C3.03018 13.881 2.5498 10.5859 2.44071 8.42505C2.39921 7.60292 3.07641 6.89646 4.03657 6.89646H4.38956C6.15161 6.89646 7.58003 5.46803 7.58003 3.70598Z" fill="url(#paint1_linear_203_11)"/>
    <defs>
        <linearGradient id="paint0_linear_203_11" x1="22.9667" y1="26.5183" x2="-1.84422" y2="12.6965" gradientUnits="userSpaceOnUse">
            <stop stop-color="white"/>
            <stop offset="1" stop-color="white" stop-opacity="0.29"/>
        </linearGradient>
        <linearGradient id="paint1_linear_203_11" x1="22.9667" y1="26.5183" x2="-1.84422" y2="12.6965" gradientUnits="userSpaceOnUse">
            <stop stop-color="white"/>
            <stop offset="1" stop-color="white" stop-opacity="0.29"/>
        </linearGradient>
    </defs>
</svg>